<svg width="52" height="52" viewBox="0 0 52 52" fill="none" xmlns="http://www.w3.org/2000/svg">
<g filter="url(#filter0_d_1_1910)">
<rect x="6" y="6" width="32" height="32" rx="8" fill="white" shape-rendering="crispEdges"/>
<rect x="6.5" y="6.5" width="31" height="31" rx="7.5" stroke="#E6E6E6" shape-rendering="crispEdges"/>
<mask id="path-3-inside-1_1_1910" fill="white">
<path fill-rule="evenodd" clip-rule="evenodd" d="M18.8546 19.75C18.5579 20.483 17.8393 21 17 21C15.8954 21 15 20.1046 15 19C15 17.8954 15.8954 17 17 17C17.8393 17 18.5579 17.517 18.8546 18.25L28 18.25C28.4142 18.25 28.75 18.5858 28.75 19C28.75 19.4142 28.4142 19.75 28 19.75L18.8546 19.75Z"/>
</mask>
<path fill-rule="evenodd" clip-rule="evenodd" d="M18.8546 19.75C18.5579 20.483 17.8393 21 17 21C15.8954 21 15 20.1046 15 19C15 17.8954 15.8954 17 17 17C17.8393 17 18.5579 17.517 18.8546 18.25L28 18.25C28.4142 18.25 28.75 18.5858 28.75 19C28.75 19.4142 28.4142 19.75 28 19.75L18.8546 19.75Z" fill="#DEDEDE"/>
<path d="M18.8546 19.75V18.75L18.1806 18.75L17.9277 19.3748L18.8546 19.75ZM18.8546 18.25L17.9277 18.6252L18.1806 19.25H18.8546V18.25ZM28 18.25V17.25V18.25ZM28 19.75V20.75V19.75ZM17.9277 19.3748C17.7786 19.7431 17.4181 20 17 20V22C18.2606 22 19.3373 21.2228 19.7816 20.1252L17.9277 19.3748ZM17 20C16.4477 20 16 19.5523 16 19H14C14 20.6569 15.3431 22 17 22V20ZM16 19C16 18.4477 16.4477 18 17 18V16C15.3431 16 14 17.3431 14 19H16ZM17 18C17.4181 18 17.7786 18.2569 17.9277 18.6252L19.7816 17.8748C19.3373 16.7772 18.2606 16 17 16V18ZM18.8546 19.25L28 19.25V17.25L18.8546 17.25V19.25ZM28 19.25C27.8619 19.25 27.75 19.1381 27.75 19H29.75C29.75 18.0335 28.9665 17.25 28 17.25V19.25ZM27.75 19C27.75 18.8619 27.8619 18.75 28 18.75V20.75C28.9665 20.75 29.75 19.9665 29.75 19H27.75ZM28 18.75L18.8546 18.75V20.75L28 20.75V18.75Z" fill="#DEDEDE" mask="url(#path-3-inside-1_1_1910)"/>
<mask id="path-5-inside-2_1_1910" fill="white">
<path fill-rule="evenodd" clip-rule="evenodd" d="M27 27C28.1046 27 29 26.1046 29 25C29 23.8954 28.1046 23 27 23C26.1607 23 25.4421 23.517 25.1454 24.25L16 24.25C15.5858 24.25 15.25 24.5858 15.25 25C15.25 25.4142 15.5858 25.75 16 25.75L25.1454 25.75C25.4421 26.483 26.1607 27 27 27Z"/>
</mask>
<path fill-rule="evenodd" clip-rule="evenodd" d="M27 27C28.1046 27 29 26.1046 29 25C29 23.8954 28.1046 23 27 23C26.1607 23 25.4421 23.517 25.1454 24.25L16 24.25C15.5858 24.25 15.25 24.5858 15.25 25C15.25 25.4142 15.5858 25.75 16 25.75L25.1454 25.75C25.4421 26.483 26.1607 27 27 27Z" fill="#DEDEDE"/>
<path d="M25.1454 24.25V25.25H25.8194L26.0723 24.6252L25.1454 24.25ZM16 24.25L16 23.25H16V24.25ZM16 25.75L16 24.75H16V25.75ZM25.1454 25.75L26.0723 25.3748L25.8194 24.75L25.1454 24.75V25.75ZM28 25C28 25.5523 27.5523 26 27 26V28C28.6569 28 30 26.6569 30 25H28ZM27 24C27.5523 24 28 24.4477 28 25H30C30 23.3431 28.6569 22 27 22V24ZM26.0723 24.6252C26.2214 24.2569 26.5819 24 27 24V22C25.7394 22 24.6627 22.7772 24.2184 23.8748L26.0723 24.6252ZM16 25.25L25.1454 25.25V23.25L16 23.25L16 25.25ZM16.25 25C16.25 25.1381 16.1381 25.25 16 25.25V23.25C15.0335 23.25 14.25 24.0335 14.25 25H16.25ZM16 24.75C16.1381 24.75 16.25 24.8619 16.25 25H14.25C14.25 25.9665 15.0335 26.75 16 26.75V24.75ZM25.1454 24.75L16 24.75L16 26.75L25.1454 26.75V24.75ZM27 26C26.5819 26 26.2214 25.7431 26.0723 25.3748L24.2184 26.1252C24.6627 27.2228 25.7394 28 27 28V26Z" fill="#DEDEDE" mask="url(#path-5-inside-2_1_1910)"/>
</g>
<defs>
<filter id="filter0_d_1_1910" x="0" y="0" width="52" height="52" filterUnits="userSpaceOnUse" color-interpolation-filters="sRGB">
<feFlood flood-opacity="0" result="BackgroundImageFix"/>
<feColorMatrix in="SourceAlpha" type="matrix" values="0 0 0 0 0 0 0 0 0 0 0 0 0 0 0 0 0 0 127 0" result="hardAlpha"/>
<feOffset dx="4" dy="4"/>
<feGaussianBlur stdDeviation="5"/>
<feComposite in2="hardAlpha" operator="out"/>
<feColorMatrix type="matrix" values="0 0 0 0 0.935124 0 0 0 0 0.935124 0 0 0 0 0.935124 0 0 0 0.1 0"/>
<feBlend mode="normal" in2="BackgroundImageFix" result="effect1_dropShadow_1_1910"/>
<feBlend mode="normal" in="SourceGraphic" in2="effect1_dropShadow_1_1910" result="shape"/>
</filter>
</defs>
</svg>
