<svg width="36" height="36" viewBox="0 0 36 36" fill="none" xmlns="http://www.w3.org/2000/svg">
<path d="M8 14.6382C8 19.5006 15 24.5655 15 24.5655C15 24.5655 17 26 18 26C19 26 21 24.5655 21 24.5655C21 24.5655 28 19.5006 28 14.6382C28 9.7757 22.5 6.39573 18 11.6554C13.5 6.39573 8 9.7757 8 14.6382Z" fill="white"/>
<path d="M15 24.5655L14.4724 25.2947L14.4755 25.2969L15 24.5655ZM18 11.6554L17.3161 12.2405C17.4871 12.4404 17.737 12.5554 18 12.5554C18.263 12.5554 18.5129 12.4404 18.6839 12.2405L18 11.6554ZM21 24.5655L21.5245 25.2969L21.5276 25.2947L21 24.5655ZM15 24.5655C15.5276 23.8364 15.5277 23.8365 15.5278 23.8366C15.5278 23.8366 15.5279 23.8366 15.5279 23.8366C15.5279 23.8366 15.5278 23.8366 15.5276 23.8364C15.5272 23.8361 15.5264 23.8355 15.5251 23.8346C15.5227 23.8328 15.5185 23.8298 15.5128 23.8256C15.5014 23.8172 15.4836 23.8041 15.4599 23.7863C15.4124 23.7509 15.3412 23.6972 15.2497 23.6264C15.0666 23.4849 14.8027 23.2756 14.4849 23.0088C13.8479 22.4742 13.0013 21.7143 12.1578 20.811C11.3118 19.905 10.4865 18.8735 9.87686 17.7971C9.26428 16.7156 8.9 15.6429 8.9 14.6382H7.1C7.1 16.0647 7.61072 17.4485 8.31064 18.6842C9.01346 19.9251 9.93823 21.0715 10.8422 22.0395C11.7487 23.0103 12.6521 23.8206 13.3276 24.3875C13.6661 24.6716 13.949 24.896 14.1487 25.0504C14.2486 25.1277 14.3278 25.1875 14.3829 25.2286C14.4104 25.2492 14.432 25.2651 14.447 25.2761C14.4545 25.2817 14.4605 25.286 14.4647 25.2891C14.4668 25.2906 14.4686 25.2919 14.4698 25.2928C14.4705 25.2933 14.471 25.2937 14.4714 25.294C14.4717 25.2941 14.4719 25.2943 14.472 25.2944C14.4722 25.2946 14.4724 25.2947 15 24.5655ZM8.9 14.6382C8.9 12.5385 10.0844 10.828 11.6543 10.1836C13.158 9.5663 15.2623 9.8399 17.3161 12.2405L18.6839 11.0703C16.2377 8.21126 13.342 7.54499 10.9707 8.5184C8.66559 9.46466 7.1 11.8753 7.1 14.6382H8.9ZM15 24.5655C14.4755 25.2969 14.4756 25.297 14.4757 25.297C14.4757 25.2971 14.4758 25.2971 14.4759 25.2972C14.4761 25.2973 14.4763 25.2975 14.4765 25.2976C14.477 25.298 14.4776 25.2984 14.4783 25.2989C14.4797 25.2999 14.4816 25.3013 14.484 25.303C14.4888 25.3064 14.4954 25.3111 14.5039 25.3171C14.5208 25.329 14.5449 25.3459 14.5755 25.3671C14.6366 25.4094 14.7239 25.469 14.8313 25.5401C15.0452 25.6818 15.3434 25.8719 15.6771 26.0634C16.0081 26.2534 16.3896 26.4535 16.7681 26.6086C17.1254 26.7551 17.5702 26.9 18 26.9V25.1C17.9298 25.1 17.7496 25.0656 17.4507 24.9431C17.1729 24.8292 16.8669 24.6708 16.5729 24.5021C16.2816 24.335 16.0173 24.1665 15.825 24.0392C15.7292 23.9759 15.6524 23.9234 15.6003 23.8873C15.5742 23.8692 15.5544 23.8553 15.5415 23.8462C15.5351 23.8417 15.5304 23.8384 15.5275 23.8363C15.5261 23.8353 15.5251 23.8346 15.5246 23.8343C15.5244 23.8341 15.5242 23.834 15.5242 23.834C15.5242 23.834 15.5242 23.834 15.5243 23.834C15.5243 23.834 15.5244 23.8341 15.5244 23.8341C15.5245 23.8341 15.5245 23.8342 15 24.5655ZM21 24.5655C21.5276 25.2947 21.5278 25.2946 21.528 25.2944C21.5281 25.2943 21.5283 25.2941 21.5286 25.294C21.529 25.2937 21.5295 25.2933 21.5302 25.2928C21.5314 25.2919 21.5332 25.2906 21.5353 25.2891C21.5395 25.286 21.5455 25.2817 21.553 25.2761C21.568 25.2651 21.5896 25.2492 21.6171 25.2286C21.6722 25.1875 21.7514 25.1277 21.8513 25.0504C22.051 24.896 22.3339 24.6716 22.6724 24.3875C23.3479 23.8206 24.2513 23.0103 25.1578 22.0395C26.0618 21.0715 26.9865 19.9251 27.6894 18.6842C28.3893 17.4485 28.9 16.0647 28.9 14.6382H27.1C27.1 15.6429 26.7357 16.7156 26.1231 17.7971C25.5135 18.8735 24.6882 19.905 23.8422 20.811C22.9987 21.7143 22.1521 22.4742 21.5151 23.0088C21.1973 23.2756 20.9334 23.4849 20.7503 23.6264C20.6588 23.6972 20.5876 23.7509 20.5401 23.7863C20.5164 23.8041 20.4986 23.8172 20.4872 23.8256C20.4815 23.8298 20.4773 23.8328 20.4749 23.8346C20.4736 23.8355 20.4728 23.8361 20.4724 23.8364C20.4722 23.8366 20.4721 23.8366 20.4721 23.8366C20.4721 23.8366 20.4722 23.8366 20.4722 23.8366C20.4723 23.8365 20.4724 23.8364 21 24.5655ZM28.9 14.6382C28.9 11.8753 27.3344 9.46466 25.0293 8.5184C22.658 7.54499 19.7623 8.21126 17.3161 11.0703L18.6839 12.2405C20.7377 9.8399 22.842 9.5663 24.3457 10.1836C25.9156 10.828 27.1 12.5385 27.1 14.6382H28.9ZM21 24.5655C20.4755 23.8342 20.4755 23.8341 20.4756 23.8341C20.4756 23.8341 20.4757 23.834 20.4757 23.834C20.4758 23.834 20.4758 23.834 20.4758 23.834C20.4758 23.834 20.4756 23.8341 20.4754 23.8343C20.4749 23.8346 20.4739 23.8353 20.4725 23.8363C20.4696 23.8384 20.4649 23.8417 20.4585 23.8462C20.4456 23.8553 20.4258 23.8692 20.3997 23.8873C20.3476 23.9234 20.2708 23.9759 20.175 24.0392C19.9827 24.1665 19.7184 24.335 19.4271 24.5021C19.1331 24.6708 18.8271 24.8292 18.5493 24.9431C18.2504 25.0656 18.0702 25.1 18 25.1V26.9C18.4298 26.9 18.8746 26.7551 19.2319 26.6086C19.6104 26.4535 19.9919 26.2534 20.3229 26.0634C20.6566 25.8719 20.9548 25.6818 21.1687 25.5401C21.2761 25.469 21.3634 25.4094 21.4245 25.3671C21.4551 25.3459 21.4792 25.329 21.4961 25.3171C21.5046 25.3111 21.5112 25.3064 21.516 25.303C21.5184 25.3013 21.5203 25.2999 21.5217 25.2989C21.5224 25.2984 21.523 25.298 21.5235 25.2976C21.5237 25.2975 21.5239 25.2973 21.5241 25.2972C21.5242 25.2971 21.5243 25.2971 21.5243 25.297C21.5244 25.297 21.5245 25.2969 21 24.5655Z" fill="#DEDEDE"/>
</svg>
