<svg width="116" height="44" viewBox="0 0 116 44" fill="none" xmlns="http://www.w3.org/2000/svg">
<circle cx="19.9998" cy="19.36" r="19.2" fill="#1B92FF"/>
<mask id="mask0_7331_7116" style="mask-type:alpha" maskUnits="userSpaceOnUse" x="20" y="0" width="20" height="44">
<rect width="19.2" height="43.68" transform="matrix(1 0 0 -1 20 43.8401)" fill="#D9D9D9"/>
</mask>
<g mask="url(#mask0_7331_7116)">
<path d="M0.800194 19.36C0.800194 35.2 20.0002 43.84 20.0002 43.84C20.0002 43.84 39.2002 35.2 39.2002 19.36C39.2002 8.75617 30.6041 0.160034 20.0002 0.160034C9.39633 0.160034 0.800194 8.75617 0.800194 19.36Z" fill="#1B92FF"/>
</g>
<rect x="24.8389" y="12.0699" width="5.376" height="14.592" rx="2.688" fill="#E9F4FF"/>
<rect x="15.5024" y="12.0973" width="5.376" height="14.592" rx="2.688" fill="#E9F4FF"/>
<rect opacity="0.8" x="18.1997" y="10.9725" width="5.376" height="18.4929" rx="2.688" transform="rotate(45.4799 18.1997 10.9725)" fill="#E9F4FF"/>
<rect opacity="0.8" x="31.2676" y="16.6393" width="5.30213" height="10.4446" rx="2.65107" transform="rotate(45.4799 31.2676 16.6393)" fill="#E9F4FF"/>
<rect opacity="0.8" x="27.5361" y="10.9451" width="5.43795" height="18.4261" rx="2.71897" transform="rotate(45.4799 27.5361 10.9451)" fill="#E9F4FF"/>
<path d="M87.3704 22.6566C86.6011 22.63 85.9644 22.5504 85.4604 22.4178C84.9828 22.2586 84.5982 22.0464 84.3064 21.7811C84.0145 21.4893 83.8023 21.1312 83.6697 20.7067C83.5636 20.2557 83.4972 19.7251 83.4707 19.115C83.4707 18.8762 83.4574 18.4915 83.4309 17.961C83.4309 17.4039 83.4309 16.7937 83.4309 16.1305C83.4309 15.4407 83.4176 14.7245 83.3911 13.9817C83.3911 13.2388 83.3911 12.5226 83.3911 11.8328C83.3911 11.1431 83.3911 10.5329 83.3911 10.0023C83.3911 9.47176 83.3911 9.07383 83.3911 8.80854C83.3911 7.82698 83.6564 7.09744 84.187 6.61992C84.7441 6.11587 85.4206 5.86385 86.2164 5.86385C87.0653 5.86385 87.7551 6.11587 88.2857 6.61992C88.8428 7.09744 89.1213 7.84024 89.1213 8.84833V10.4003C89.6254 10.4003 90.2223 10.4003 90.912 10.4003C91.6018 10.4003 92.3048 10.4003 93.0211 10.4003C93.7373 10.4003 94.4403 10.4003 95.1301 10.4003C95.8198 10.4003 96.4167 10.4003 96.9208 10.4003V8.60957C96.9208 7.68107 97.1993 6.99132 97.7564 6.54033C98.3135 6.08934 99.0033 5.86385 99.8257 5.86385C100.622 5.86385 101.298 6.07608 101.855 6.50054C102.412 6.925 102.691 7.57495 102.691 8.4504C102.691 8.79528 102.691 9.47176 102.691 10.4799C102.717 11.4614 102.731 12.5226 102.731 13.6633C102.731 14.804 102.731 15.8917 102.731 16.9263C102.731 17.9344 102.717 18.6374 102.691 19.0354C102.664 19.6455 102.585 20.1761 102.452 20.6271C102.319 21.0516 102.094 21.4097 101.776 21.7015C101.457 21.9668 101.019 22.179 100.462 22.3382C99.9053 22.4974 99.1757 22.5902 98.2738 22.6168C97.584 22.6698 96.7749 22.7096 95.8464 22.7361C94.9444 22.7361 94.0026 22.7494 93.0211 22.7759C92.066 22.7759 91.0977 22.7759 90.1162 22.7759C89.1346 22.7494 88.2193 22.7096 87.3704 22.6566ZM89.1213 17.1651C89.1479 17.5896 89.2274 17.8416 89.3601 17.9212C89.4927 18.0008 89.7845 18.0538 90.2355 18.0803C91.0845 18.1069 91.9864 18.1201 92.9415 18.1201C93.8965 18.1201 94.7587 18.0936 95.528 18.0406C95.8198 18.014 96.0586 18.0008 96.2443 18.0008C96.43 17.9742 96.5759 17.9477 96.682 17.9212C96.7881 17.8681 96.8545 17.7885 96.881 17.6824C96.9341 17.5498 96.9606 17.3773 96.9606 17.1651V14.7377C96.4565 14.7377 95.8596 14.7377 95.1699 14.7377C94.4801 14.7112 93.7639 14.6979 93.0211 14.6979C92.3048 14.6979 91.6018 14.7112 90.912 14.7377C90.2223 14.7377 89.6254 14.7377 89.1213 14.7377V17.1651ZM94.1751 31.4508C94.1751 30.257 94.3873 29.1826 94.8117 28.2276C95.2627 27.2726 95.8729 26.4634 96.6422 25.8002C97.4381 25.137 98.3931 24.6329 99.5073 24.2881C100.622 23.9432 101.855 23.7708 103.208 23.7708C104.455 23.7708 105.596 23.9432 106.63 24.2881C107.691 24.6329 108.593 25.137 109.336 25.8002C110.106 26.4634 110.702 27.2726 111.127 28.2276C111.551 29.1561 111.764 30.2305 111.764 31.4508C111.764 32.5385 111.565 33.5466 111.167 34.4751C110.795 35.4036 110.238 36.2128 109.495 36.9025C108.753 37.5923 107.851 38.1361 106.789 38.534C105.755 38.932 104.561 39.1309 103.208 39.1309C101.855 39.1309 100.622 38.932 99.5073 38.534C98.4197 38.1361 97.4779 37.5923 96.682 36.9025C95.8862 36.2128 95.2627 35.4036 94.8117 34.4751C94.3873 33.5466 94.1751 32.5385 94.1751 31.4508ZM100.064 31.3713C100.064 32.1406 100.343 32.7773 100.9 33.2813C101.457 33.7588 102.187 33.9976 103.089 33.9976C104.017 33.9976 104.76 33.7588 105.317 33.2813C105.901 32.7773 106.193 32.1406 106.193 31.3713C106.193 30.5223 105.914 29.8724 105.357 29.4214C104.8 28.9439 104.044 28.7051 103.089 28.7051C102.187 28.7051 101.457 28.9306 100.9 29.3816C100.343 29.8061 100.064 30.4693 100.064 31.3713ZM108.222 8.25144C108.169 7.13723 108.381 6.30157 108.859 5.74447C109.363 5.16084 110.106 4.86902 111.087 4.86902C111.989 4.86902 112.719 5.14757 113.276 5.70468C113.859 6.23525 114.178 7.13723 114.231 8.41061C114.284 9.76357 114.31 10.9706 114.31 12.0318C114.337 13.0664 114.35 14.048 114.35 14.9765C114.35 15.8785 114.337 16.7406 114.31 17.563C114.31 18.3854 114.297 19.2343 114.271 20.1098C114.218 21.3832 113.939 22.3913 113.435 23.1341C112.931 23.8769 112.175 24.2483 111.167 24.2483C110.159 24.2483 109.416 23.9565 108.938 23.3728C108.487 22.7627 108.302 21.7811 108.381 20.4281C108.408 19.7384 108.421 18.9027 108.421 17.9212C108.448 16.9396 108.448 15.905 108.421 14.8173C108.421 13.7031 108.394 12.5756 108.341 11.4349C108.315 10.2942 108.275 9.233 108.222 8.25144Z" fill="#1B92FF"/>
<path d="M65.1295 38.8922C64.3602 38.8922 63.6306 38.6269 62.9409 38.0964C62.2777 37.5658 61.9195 36.7832 61.8665 35.7486C61.8665 35.4302 61.8532 35.0456 61.8267 34.5946C61.8267 34.1436 61.8134 33.6528 61.7869 33.1222C61.7869 32.5916 61.7869 32.0345 61.7869 31.4509C61.7869 30.8673 61.7869 30.2836 61.7869 29.7C59.8503 29.6735 57.9667 29.6337 56.1363 29.5806C54.3323 29.5276 52.7008 29.4347 51.2417 29.3021C50.0214 29.196 49.1725 28.9042 48.6949 28.4266C48.2174 27.9226 48.0052 27.2859 48.0583 26.5166C48.1113 25.7472 48.3633 25.1238 48.8143 24.6463C49.2918 24.1422 50.1673 23.9167 51.4407 23.9698C53.5895 24.0494 55.8179 24.1157 58.1259 24.1688C60.4605 24.1953 62.7817 24.2086 65.0897 24.2086C67.4242 24.2086 69.7323 24.1953 72.0137 24.1688C74.2952 24.1157 76.4706 24.0361 78.5398 23.93C79.8928 23.8769 80.8345 24.129 81.3651 24.6861C81.9222 25.2167 82.2008 25.8931 82.2008 26.7155C82.2008 27.4849 81.9885 28.0818 81.5641 28.5062C81.1661 28.9042 80.4631 29.1562 79.455 29.2623C78.2878 29.3949 76.7358 29.501 74.7992 29.5806C72.8892 29.6337 70.7934 29.6735 68.5119 29.7C68.4854 30.5489 68.4589 31.4244 68.4323 32.3264C68.4323 33.2018 68.4323 33.9977 68.4323 34.714C68.4323 35.4302 68.3262 36.0404 68.114 36.5444C67.9283 37.075 67.6763 37.5127 67.3579 37.8576C67.0661 38.2025 66.7212 38.4545 66.3233 38.6137C65.9254 38.7994 65.5274 38.8922 65.1295 38.8922ZM51.5998 16.1703C51.5998 15.1622 51.5998 14.3266 51.5998 13.6634C51.5998 13.0002 51.5998 12.4298 51.5998 11.9523C51.6264 11.4482 51.6396 10.9972 51.6396 10.5993C51.6662 10.2014 51.706 9.75038 51.759 9.24633C51.8386 8.37089 52.1172 7.72093 52.5947 7.29647C53.0722 6.84548 53.8548 6.60672 54.9425 6.58019C56.6138 6.55366 58.3249 6.52714 60.0758 6.50061C61.8532 6.47408 63.6174 6.46081 65.3683 6.46081C67.1192 6.43429 68.8303 6.43429 70.5016 6.46081C72.1729 6.46081 73.7514 6.50061 75.237 6.58019C76.3246 6.63325 77.1072 6.87201 77.5848 7.29647C78.0623 7.72093 78.3408 8.37089 78.4204 9.24633C78.447 9.75038 78.4735 10.2014 78.5 10.5993C78.5265 10.9972 78.5398 11.4482 78.5398 11.9523C78.5663 12.4298 78.5796 13.0002 78.5796 13.6634C78.5796 14.3266 78.5796 15.1622 78.5796 16.1703C78.5796 17.1254 78.5133 17.9345 78.3806 18.5977C78.2745 19.2344 78.0358 19.765 77.6644 20.1894C77.2929 20.5874 76.7624 20.8925 76.0726 21.1047C75.3829 21.3169 74.4544 21.4628 73.2871 21.5424C72.279 21.5955 71.0985 21.6353 69.7455 21.6618C68.3925 21.6883 66.9733 21.7016 65.4876 21.7016C64.002 21.7016 62.5032 21.6883 60.991 21.6618C59.5054 21.6353 58.1392 21.6087 56.8923 21.5822C55.7251 21.5557 54.7966 21.4363 54.1068 21.2241C53.4171 21.0118 52.8865 20.6935 52.5151 20.269C52.1437 19.818 51.8917 19.2609 51.759 18.5977C51.6529 17.9345 51.5998 17.1254 51.5998 16.1703ZM57.6086 12.5492C57.5821 13.0532 57.5688 13.4644 57.5688 13.7828C57.5953 14.0746 57.6219 14.4725 57.6484 14.9765C57.7015 15.5337 57.8208 15.9051 58.0065 16.0908C58.2188 16.2765 58.63 16.3826 59.2401 16.4091C60.0095 16.4356 60.8982 16.4622 61.9063 16.4887C62.9409 16.4887 63.9888 16.4887 65.0499 16.4887C66.1376 16.4887 67.1988 16.4887 68.2334 16.4887C69.268 16.4622 70.17 16.4356 70.9393 16.4091C71.5495 16.3826 71.9474 16.2765 72.1331 16.0908C72.3453 15.9051 72.478 15.5337 72.531 14.9765C72.5576 14.4725 72.5708 14.0746 72.5708 13.7828C72.5974 13.4644 72.5974 13.0532 72.5708 12.5492C72.5443 12.2573 72.478 12.0584 72.3719 11.9523C72.2923 11.8462 72.08 11.7798 71.7352 11.7533C71.0454 11.7002 70.0904 11.6737 68.8701 11.6737C67.6763 11.6472 66.4162 11.6339 65.0897 11.6339C63.7898 11.6339 62.5297 11.6472 61.3094 11.6737C60.089 11.7002 59.134 11.7268 58.4443 11.7533C58.0994 11.7798 57.8739 11.8462 57.7678 11.9523C57.6882 12.0584 57.6351 12.2573 57.6086 12.5492Z" fill="#1B92FF"/>
</svg>
