<svg width="140" height="80" viewBox="0 0 140 80" fill="none" xmlns="http://www.w3.org/2000/svg">
<path d="M79.9308 41.0571C78.6927 41.0144 77.668 40.8863 76.8569 40.6728C76.0884 40.4167 75.4694 40.0751 74.9998 39.6482C74.5301 39.1786 74.1886 38.6023 73.9751 37.9192C73.8044 37.1934 73.6976 36.3395 73.6549 35.3576C73.6549 34.9734 73.6336 34.3543 73.5909 33.5005C73.5909 32.6039 73.5909 31.622 73.5909 30.5547C73.5909 29.4447 73.5695 28.292 73.5269 27.0966C73.5269 25.9012 73.5269 24.7485 73.5269 23.6385C73.5269 22.5285 73.5269 21.5465 73.5269 20.6927C73.5269 19.8388 73.5269 19.1984 73.5269 18.7715C73.5269 17.1919 73.9538 16.0178 74.8076 15.2494C75.7042 14.4382 76.7928 14.0326 78.0736 14.0326C79.4398 14.0326 80.5498 14.4382 81.4037 15.2494C82.3002 16.0178 82.7485 17.2132 82.7485 18.8355V21.3331C83.5596 21.3331 84.5202 21.3331 85.6302 21.3331C86.7402 21.3331 87.8716 21.3331 89.0243 21.3331C90.177 21.3331 91.3084 21.3331 92.4184 21.3331C93.5284 21.3331 94.489 21.3331 95.3001 21.3331V18.4513C95.3001 16.9571 95.7484 15.8471 96.6449 15.1213C97.5415 14.3955 98.6515 14.0326 99.975 14.0326C101.256 14.0326 102.344 14.3742 103.241 15.0572C104.137 15.7403 104.586 16.7863 104.586 18.1952C104.586 18.7502 104.586 19.8388 104.586 21.4611C104.628 23.0408 104.65 24.7485 104.65 26.5843C104.65 28.42 104.65 30.1704 104.65 31.8355C104.65 33.4578 104.628 34.5891 104.586 35.2295C104.543 36.2115 104.415 37.0653 104.202 37.7911C103.988 38.4742 103.625 39.0505 103.113 39.5201C102.601 39.9471 101.896 40.2886 101 40.5448C100.103 40.8009 98.929 40.9503 97.4774 40.993C96.3674 41.0784 95.0653 41.1425 93.5711 41.1852C92.1195 41.1852 90.6039 41.2065 89.0243 41.2492C87.4874 41.2492 85.9291 41.2492 84.3494 41.2492C82.7698 41.2065 81.2969 41.1425 79.9308 41.0571ZM82.7485 32.2197C82.7912 32.9028 82.9192 33.3084 83.1327 33.4364C83.3462 33.5645 83.8158 33.6499 84.5416 33.6926C85.9077 33.7353 87.3593 33.7566 88.8962 33.7566C90.4332 33.7566 91.8207 33.7139 93.0588 33.6286C93.5284 33.5859 93.9126 33.5645 94.2115 33.5645C94.5103 33.5218 94.7451 33.4791 94.9159 33.4364C95.0867 33.3511 95.1934 33.223 95.2361 33.0522C95.3215 32.8387 95.3642 32.5612 95.3642 32.2197V28.3133C94.553 28.3133 93.5924 28.3133 92.4824 28.3133C91.3724 28.2706 90.2197 28.2493 89.0243 28.2493C87.8716 28.2493 86.7402 28.2706 85.6302 28.3133C84.5202 28.3133 83.5596 28.3133 82.7485 28.3133V32.2197ZM90.8814 55.2097C90.8814 53.2885 91.223 51.5595 91.906 50.0225C92.6318 48.4856 93.6138 47.1835 94.8518 46.1162C96.1326 45.0488 97.6696 44.2377 99.4627 43.6827C101.256 43.1277 103.241 42.8502 105.418 42.8502C107.425 42.8502 109.261 43.1277 110.926 43.6827C112.633 44.2377 114.085 45.0488 115.28 46.1162C116.518 47.1835 117.479 48.4856 118.162 50.0225C118.845 51.5168 119.187 53.2458 119.187 55.2097C119.187 56.9601 118.866 58.5824 118.226 60.0767C117.628 61.5709 116.732 62.873 115.536 63.983C114.341 65.0931 112.889 65.9683 111.182 66.6086C109.517 67.249 107.596 67.5692 105.418 67.5692C103.241 67.5692 101.256 67.249 99.4627 66.6086C97.7123 65.9683 96.1967 65.0931 94.9159 63.983C93.6351 62.873 92.6318 61.5709 91.906 60.0767C91.223 58.5824 90.8814 56.9601 90.8814 55.2097ZM100.359 55.0816C100.359 56.3197 100.807 57.3443 101.704 58.1555C102.601 58.924 103.775 59.3082 105.226 59.3082C106.72 59.3082 107.916 58.924 108.812 58.1555C109.752 57.3443 110.221 56.3197 110.221 55.0816C110.221 53.7155 109.773 52.6695 108.876 51.9437C107.98 51.1752 106.763 50.791 105.226 50.791C103.775 50.791 102.601 51.1539 101.704 51.8797C100.807 52.5627 100.359 53.6301 100.359 55.0816ZM113.487 17.875C113.402 16.0819 113.743 14.737 114.512 13.8405C115.323 12.9013 116.518 12.4316 118.098 12.4316C119.55 12.4316 120.724 12.8799 121.62 13.7765C122.559 14.6303 123.072 16.0819 123.157 18.1311C123.242 20.3084 123.285 22.251 123.285 23.9587C123.328 25.6237 123.349 27.2033 123.349 28.6975C123.349 30.1491 123.328 31.5366 123.285 32.8601C123.285 34.1836 123.264 35.5497 123.221 36.9586C123.136 39.0078 122.687 40.6302 121.876 41.8255C121.065 43.0209 119.848 43.6186 118.226 43.6186C116.604 43.6186 115.408 43.149 114.64 42.2098C113.914 41.2278 113.615 39.6482 113.743 37.4709C113.786 36.3609 113.807 35.0161 113.807 33.4364C113.85 31.8568 113.85 30.1918 113.807 28.4414C113.807 26.6483 113.765 24.8339 113.679 22.9981C113.637 21.1623 113.573 19.4546 113.487 17.875Z" fill="#1B92FF"/>
<path d="M44.1369 67.1847C42.8988 67.1847 41.7248 66.7578 40.6148 65.904C39.5474 65.0501 38.9711 63.7907 38.8857 62.1257C38.8857 61.6133 38.8644 60.9943 38.8217 60.2685C38.8217 59.5428 38.8003 58.7529 38.7576 57.8991C38.7576 57.0452 38.7576 56.1487 38.7576 55.2094C38.7576 54.2702 38.7576 53.331 38.7576 52.3917C35.6411 52.349 32.6099 52.285 29.6641 52.1996C26.761 52.1142 24.1354 51.9648 21.7873 51.7513C19.8234 51.5806 18.4573 51.111 17.6888 50.3425C16.9203 49.5313 16.5788 48.5067 16.6642 47.2686C16.7496 46.0305 17.1551 45.0272 17.8809 44.2588C18.6494 43.4476 20.0582 43.0847 22.1075 43.1701C25.5656 43.2982 29.1518 43.4049 32.866 43.4903C36.623 43.533 40.3586 43.5543 44.0729 43.5543C47.8298 43.5543 51.5441 43.533 55.2157 43.4903C58.8872 43.4049 62.388 43.2768 65.7181 43.1061C67.8954 43.0207 69.411 43.4263 70.2648 44.3228C71.1614 45.1767 71.6096 46.2653 71.6096 47.5888C71.6096 48.8269 71.2681 49.7875 70.585 50.4706C69.9446 51.111 68.8133 51.5165 67.191 51.6873C65.3125 51.9008 62.815 52.0715 59.6984 52.1996C56.6245 52.285 53.2518 52.349 49.5802 52.3917C49.5375 53.7579 49.4948 55.1668 49.4521 56.6183C49.4521 58.0272 49.4521 59.3079 49.4521 60.4606C49.4521 61.6133 49.2814 62.5953 48.9398 63.4064C48.641 64.2603 48.2354 64.9647 47.7231 65.5197C47.2535 66.0747 46.6985 66.4803 46.0581 66.7365C45.4177 67.0353 44.7773 67.1847 44.1369 67.1847ZM22.3636 30.6185C22.3636 28.9961 22.3636 27.6513 22.3636 26.584C22.3636 25.5167 22.3636 24.5988 22.3636 23.8303C22.4063 23.0192 22.4277 22.2934 22.4277 21.653C22.4704 21.0126 22.5344 20.2868 22.6198 19.4757C22.7479 18.0668 23.1962 17.0209 23.9646 16.3378C24.7331 15.612 25.9925 15.2278 27.7429 15.1851C30.4326 15.1424 33.1862 15.0997 36.004 15.057C38.8644 15.0143 41.7034 14.993 44.5211 14.993C47.3389 14.9503 50.0925 14.9503 52.7822 14.993C55.4718 14.993 58.012 15.057 60.4028 15.1851C62.1532 15.2705 63.4127 15.6547 64.1811 16.3378C64.9496 17.0209 65.3979 18.0668 65.5259 19.4757C65.5686 20.2868 65.6113 21.0126 65.654 21.653C65.6967 22.2934 65.7181 23.0192 65.7181 23.8303C65.7607 24.5988 65.7821 25.5167 65.7821 26.584C65.7821 27.6513 65.7821 28.9961 65.7821 30.6185C65.7821 32.1554 65.6754 33.4575 65.4619 34.5249C65.2911 35.5495 64.9069 36.4033 64.3092 37.0864C63.7115 37.7268 62.8576 38.2178 61.7476 38.5593C60.6376 38.9008 59.1434 39.1357 57.2649 39.2637C55.6426 39.3491 53.7428 39.4132 51.5654 39.4559C49.3881 39.4985 47.104 39.5199 44.7133 39.5199C42.3225 39.5199 39.9103 39.4985 37.4769 39.4559C35.0861 39.4132 32.8874 39.3705 30.8808 39.3278C29.0024 39.2851 27.5081 39.093 26.3981 38.7514C25.2881 38.4099 24.4342 37.8976 23.8365 37.2145C23.2388 36.4887 22.8333 35.5922 22.6198 34.5249C22.449 33.4575 22.3636 32.1554 22.3636 30.6185ZM32.0335 24.7909C31.9908 25.6021 31.9695 26.2638 31.9695 26.7761C32.0122 27.2457 32.0549 27.8861 32.0976 28.6973C32.183 29.5938 32.3751 30.1915 32.6739 30.4904C33.0155 30.7892 33.6772 30.96 34.6591 31.0027C35.8972 31.0454 37.3274 31.0881 38.9497 31.1308C40.6148 31.1308 42.3011 31.1308 44.0088 31.1308C45.7592 31.1308 47.4669 31.1308 49.132 31.1308C50.797 31.0881 52.2485 31.0454 53.4866 31.0027C54.4685 30.96 55.1089 30.7892 55.4078 30.4904C55.7493 30.1915 55.9628 29.5938 56.0482 28.6973C56.0909 27.8861 56.1122 27.2457 56.1122 26.7761C56.1549 26.2638 56.1549 25.6021 56.1122 24.7909C56.0695 24.3213 55.9628 24.0011 55.792 23.8303C55.6639 23.6596 55.3224 23.5528 54.7674 23.5101C53.6574 23.4248 52.1204 23.3821 50.1566 23.3821C48.2354 23.3394 46.2075 23.318 44.0729 23.318C41.9809 23.318 39.953 23.3394 37.9892 23.3821C36.0253 23.4248 34.4884 23.4675 33.3784 23.5101C32.8234 23.5528 32.4605 23.6596 32.2897 23.8303C32.1616 24.0011 32.0762 24.3213 32.0335 24.7909Z" fill="#1B92FF"/>
</svg>
