<svg width="29" height="34" viewBox="0 0 29 34" fill="none" xmlns="http://www.w3.org/2000/svg">
<circle cx="14.4" cy="15.0206" r="14.4" fill="#1B92FF"/>
<mask id="mask0_7331_16605" style="mask-type:alpha" maskUnits="userSpaceOnUse" x="14" y="0" width="15" height="34">
<rect width="14.4" height="32.76" transform="matrix(1 0 0 -1 14.3999 33.38)" fill="#D9D9D9"/>
</mask>
<g mask="url(#mask0_7331_16605)">
<path d="M-0.00019455 15.02C-0.00019455 26.9 14.3998 33.38 14.3998 33.38C14.3998 33.38 28.7998 26.9 28.7998 15.02C28.7998 7.06709 22.3527 0.619995 14.3998 0.619995C6.44691 0.619995 -0.00019455 7.06709 -0.00019455 15.02Z" fill="#1B92FF"/>
</g>
<rect x="18.0293" y="9.55139" width="4.032" height="10.944" rx="2.016" fill="#E9F4FF"/>
<rect x="11.0269" y="9.5719" width="4.032" height="10.944" rx="2.016" fill="#E9F4FF"/>
<rect opacity="0.8" x="13.0498" y="8.72839" width="4.032" height="13.8697" rx="2.016" transform="rotate(45.4799 13.0498 8.72839)" fill="#E9F4FF"/>
<rect opacity="0.8" x="22.8506" y="12.9785" width="3.9766" height="7.83348" rx="1.9883" transform="rotate(45.4799 22.8506 12.9785)" fill="#E9F4FF"/>
<rect opacity="0.8" x="20.0522" y="8.70776" width="4.07846" height="13.8196" rx="2.03923" transform="rotate(45.4799 20.0522 8.70776)" fill="#E9F4FF"/>
</svg>
