<svg width="402" height="140" viewBox="0 0 402 140" fill="none" xmlns="http://www.w3.org/2000/svg">
<circle cx="231.84" cy="124.72" r="14.88" fill="#A2CAEE"/>
<path d="M104.64 120.4H240.48C240.48 124.642 237.041 128.08 232.8 128.08H112.32C108.078 128.08 104.64 124.642 104.64 120.4Z" fill="#A2CAEE"/>
<path d="M48.48 49.8398C48.48 41.3567 55.3569 34.4797 63.84 34.4797H96V120.4H63.84C55.3569 120.4 48.48 113.523 48.48 105.04V49.8398Z" fill="#E9F4FF"/>
<path d="M32.6396 75.76C32.6396 67.2769 39.5166 60.4 47.9996 60.4H72.4796V112.72C72.4796 116.962 69.0412 120.4 64.7996 120.4H47.9997C39.5166 120.4 32.6396 113.523 32.6396 105.04V75.76Z" fill="#E9F4FF"/>
<path d="M96 9.99978C96 4.69784 100.298 0.39978 105.6 0.39978H247.68C252.982 0.39978 257.28 4.69785 257.28 9.99978V112.72C257.28 116.961 253.842 120.4 249.6 120.4H96V9.99978Z" fill="#B1D7F9"/>
<circle cx="67.1998" cy="124.72" r="14.88" fill="#A2CAEE"/>
<circle cx="143.04" cy="58.2888" r="15.36" fill="#F5FAFF"/>
<mask id="mask0_1_11390" style="mask-type:alpha" maskUnits="userSpaceOnUse" x="143" y="42" width="16" height="36">
<rect width="15.36" height="34.944" transform="matrix(1 0 0 -1 143.04 77.8724)" fill="#D9D9D9"/>
</mask>
<g mask="url(#mask0_1_11390)">
<path d="M127.68 58.2881C127.68 70.9601 143.04 77.8721 143.04 77.8721C143.04 77.8721 158.4 70.9601 158.4 58.2881C158.4 49.805 151.523 42.9281 143.04 42.9281C134.557 42.9281 127.68 49.805 127.68 58.2881Z" fill="#F5FAFF"/>
</g>
<rect x="146.912" y="52.4572" width="4.3008" height="11.6736" rx="2.1504" fill="#B1D7F9"/>
<rect x="139.442" y="52.4788" width="4.3008" height="11.6736" rx="2.1504" fill="#B1D7F9"/>
<rect opacity="0.8" x="141.6" y="51.5787" width="4.3008" height="14.7943" rx="2.1504" transform="rotate(45.4799 141.6 51.5787)" fill="#B1D7F9"/>
<rect opacity="0.8" x="152.054" y="56.1125" width="4.24171" height="8.35572" rx="2.12085" transform="rotate(45.4799 152.054 56.1125)" fill="#B1D7F9"/>
<rect opacity="0.8" x="149.069" y="51.5573" width="4.35036" height="14.7409" rx="2.17518" transform="rotate(45.4799 149.069 51.5573)" fill="#B1D7F9"/>
<path d="M197.727 60.9079C197.133 60.8874 196.641 60.826 196.252 60.7235C195.883 60.6005 195.586 60.4366 195.36 60.2317C195.135 60.0063 194.971 59.7296 194.868 59.4017C194.787 59.0534 194.735 58.6435 194.715 58.1722C194.715 57.9878 194.705 57.6906 194.684 57.2808C194.684 56.8504 194.684 56.3791 194.684 55.8668C194.684 55.334 194.674 54.7807 194.653 54.2069C194.653 53.6331 194.653 53.0798 194.653 52.547C194.653 52.0142 194.653 51.5429 194.653 51.133C194.653 50.7232 194.653 50.4158 194.653 50.2109C194.653 49.4526 194.858 48.8891 195.268 48.5202C195.698 48.1309 196.221 47.9362 196.836 47.9362C197.492 47.9362 198.024 48.1309 198.434 48.5202C198.865 48.8891 199.08 49.4629 199.08 50.2416V51.4404C199.469 51.4404 199.93 51.4404 200.463 51.4404C200.996 51.4404 201.539 51.4404 202.092 51.4404C202.645 51.4404 203.188 51.4404 203.721 51.4404C204.254 51.4404 204.715 51.4404 205.104 51.4404V50.0572C205.104 49.3399 205.32 48.8071 205.75 48.4588C206.18 48.1104 206.713 47.9362 207.348 47.9362C207.963 47.9362 208.486 48.1001 208.916 48.428C209.346 48.7559 209.562 49.258 209.562 49.9342C209.562 50.2006 209.562 50.7232 209.562 51.5019C209.582 52.2601 209.592 53.0798 209.592 53.961C209.592 54.8422 209.592 55.6824 209.592 56.4816C209.592 57.2603 209.582 57.8033 209.562 58.1107C209.541 58.582 209.48 58.9919 209.377 59.3403C209.275 59.6681 209.101 59.9448 208.855 60.1702C208.609 60.3751 208.271 60.5391 207.84 60.662C207.41 60.785 206.846 60.8567 206.15 60.8772C205.617 60.9182 204.992 60.9489 204.275 60.9694C203.578 60.9694 202.85 60.9797 202.092 61.0002C201.354 61.0002 200.606 61.0002 199.848 61.0002C199.09 60.9797 198.383 60.9489 197.727 60.9079ZM199.08 56.666C199.1 56.9939 199.162 57.1885 199.264 57.25C199.367 57.3115 199.592 57.3525 199.94 57.373C200.596 57.3935 201.293 57.4037 202.031 57.4037C202.768 57.4037 203.434 57.3832 204.029 57.3422C204.254 57.3217 204.438 57.3115 204.582 57.3115C204.725 57.291 204.838 57.2705 204.92 57.25C205.002 57.209 205.053 57.1476 205.074 57.0656C205.115 56.9631 205.135 56.8299 205.135 56.666V54.7909C204.746 54.7909 204.285 54.7909 203.752 54.7909C203.219 54.7704 202.666 54.7602 202.092 54.7602C201.539 54.7602 200.996 54.7704 200.463 54.7909C199.93 54.7909 199.469 54.7909 199.08 54.7909V56.666ZM202.984 67.7012C202.984 66.779 203.147 65.9491 203.475 65.2114C203.824 64.4736 204.295 63.8486 204.889 63.3363C205.504 62.824 206.242 62.4346 207.103 62.1682C207.963 61.9018 208.916 61.7686 209.961 61.7686C210.924 61.7686 211.806 61.9018 212.605 62.1682C213.424 62.4346 214.121 62.824 214.695 63.3363C215.289 63.8486 215.75 64.4736 216.078 65.2114C216.406 65.9286 216.57 66.7585 216.57 67.7012C216.57 68.5414 216.416 69.3201 216.109 70.0373C215.822 70.7546 215.392 71.3796 214.818 71.9124C214.244 72.4452 213.547 72.8653 212.728 73.1727C211.928 73.4801 211.006 73.6338 209.961 73.6338C208.916 73.6338 207.963 73.4801 207.103 73.1727C206.262 72.8653 205.535 72.4452 204.92 71.9124C204.305 71.3796 203.824 70.7546 203.475 70.0373C203.147 69.3201 202.984 68.5414 202.984 67.7012ZM207.533 67.6397C207.533 68.234 207.748 68.7258 208.178 69.1152C208.609 69.484 209.172 69.6685 209.869 69.6685C210.586 69.6685 211.16 69.484 211.59 69.1152C212.041 68.7258 212.267 68.234 212.267 67.6397C212.267 66.984 212.051 66.4819 211.621 66.1335C211.191 65.7647 210.607 65.5802 209.869 65.5802C209.172 65.5802 208.609 65.7544 208.178 66.1028C207.748 66.4307 207.533 66.943 207.533 67.6397ZM213.834 49.7805C213.793 48.9198 213.957 48.2743 214.326 47.844C214.715 47.3931 215.289 47.1677 216.047 47.1677C216.744 47.1677 217.308 47.3829 217.738 47.8132C218.189 48.2231 218.435 48.9198 218.476 49.9035C218.517 50.9486 218.537 51.881 218.537 52.7007C218.558 53.4999 218.568 54.2581 218.568 54.9754C218.568 55.6721 218.558 56.3381 218.537 56.9734C218.537 57.6086 218.527 58.2644 218.507 58.9407C218.466 59.9243 218.25 60.703 217.861 61.2768C217.472 61.8506 216.888 62.1375 216.109 62.1375C215.33 62.1375 214.756 61.9121 214.388 61.4612C214.039 60.9899 213.896 60.2317 213.957 59.1866C213.978 58.6538 213.988 58.0082 213.988 57.25C214.008 56.4918 214.008 55.6926 213.988 54.8524C213.988 53.9917 213.967 53.1208 213.927 52.2396C213.906 51.3584 213.875 50.5387 213.834 49.7805Z" fill="#F5FAFF"/>
<path d="M180.546 73.4493C179.952 73.4493 179.388 73.2443 178.855 72.8345C178.343 72.4246 178.066 71.8201 178.026 71.0209C178.026 70.775 178.015 70.4779 177.995 70.1295C177.995 69.7811 177.985 69.402 177.964 68.9921C177.964 68.5823 177.964 68.152 177.964 67.7011C177.964 67.2503 177.964 66.7995 177.964 66.3486C176.468 66.3281 175.013 66.2974 173.599 66.2564C172.206 66.2154 170.945 66.1437 169.818 66.0412C168.876 65.9593 168.22 65.7338 167.851 65.365C167.482 64.9756 167.318 64.4838 167.359 63.8895C167.4 63.2952 167.595 62.8137 167.943 62.4448C168.312 62.0554 168.988 61.8813 169.972 61.9222C171.632 61.9837 173.353 62.035 175.136 62.0759C176.939 62.0964 178.733 62.1067 180.515 62.1067C182.319 62.1067 184.102 62.0964 185.864 62.0759C187.626 62.035 189.307 61.9735 190.905 61.8915C191.95 61.8505 192.678 62.0452 193.087 62.4755C193.518 62.8854 193.733 63.4079 193.733 64.0432C193.733 64.6375 193.569 65.0986 193.241 65.4265C192.934 65.7338 192.391 65.9285 191.612 66.0105C190.71 66.113 189.512 66.1949 188.016 66.2564C186.54 66.2974 184.921 66.3281 183.159 66.3486C183.138 67.0044 183.118 67.6806 183.097 68.3774C183.097 69.0536 183.097 69.6684 183.097 70.2217C183.097 70.775 183.015 71.2463 182.851 71.6357C182.708 72.0455 182.513 72.3837 182.267 72.6501C182.042 72.9165 181.776 73.1111 181.468 73.2341C181.161 73.3775 180.853 73.4493 180.546 73.4493ZM170.095 55.8975C170.095 55.1187 170.095 54.4732 170.095 53.9609C170.095 53.4486 170.095 53.008 170.095 52.6391C170.115 52.2498 170.126 51.9014 170.126 51.594C170.146 51.2866 170.177 50.9383 170.218 50.5489C170.279 49.8727 170.495 49.3706 170.863 49.0427C171.232 48.6943 171.837 48.5099 172.677 48.4894C173.968 48.4689 175.29 48.4484 176.642 48.4279C178.015 48.4075 179.378 48.3972 180.731 48.3972C182.083 48.3767 183.405 48.3767 184.696 48.3972C185.987 48.3972 187.206 48.4279 188.354 48.4894C189.194 48.5304 189.798 48.7148 190.167 49.0427C190.536 49.3706 190.751 49.8727 190.813 50.5489C190.833 50.9383 190.854 51.2866 190.874 51.594C190.895 51.9014 190.905 52.2498 190.905 52.6391C190.926 53.008 190.936 53.4486 190.936 53.9609C190.936 54.4732 190.936 55.1187 190.936 55.8975C190.936 56.6352 190.885 57.2602 190.782 57.7725C190.7 58.2643 190.516 58.6742 190.229 59.0021C189.942 59.3095 189.532 59.5451 188.999 59.7091C188.466 59.873 187.749 59.9857 186.848 60.0472C186.069 60.0882 185.157 60.1189 184.112 60.1394C183.067 60.1599 181.97 60.1701 180.823 60.1701C179.675 60.1701 178.517 60.1599 177.349 60.1394C176.202 60.1189 175.146 60.0984 174.183 60.0779C173.282 60.0574 172.564 59.9652 172.031 59.8013C171.499 59.6373 171.089 59.3914 170.802 59.0635C170.515 58.7152 170.32 58.2848 170.218 57.7725C170.136 57.2602 170.095 56.6352 170.095 55.8975ZM174.736 53.1002C174.716 53.4896 174.706 53.8072 174.706 54.0531C174.726 54.2785 174.747 54.5859 174.767 54.9753C174.808 55.4056 174.9 55.6925 175.044 55.836C175.208 55.9794 175.525 56.0614 175.997 56.0819C176.591 56.1024 177.278 56.1229 178.056 56.1434C178.855 56.1434 179.665 56.1434 180.485 56.1434C181.325 56.1434 182.145 56.1434 182.944 56.1434C183.743 56.1229 184.44 56.1024 185.034 56.0819C185.505 56.0614 185.813 55.9794 185.956 55.836C186.12 55.6925 186.223 55.4056 186.263 54.9753C186.284 54.5859 186.294 54.2785 186.294 54.0531C186.315 53.8072 186.315 53.4896 186.294 53.1002C186.274 52.8748 186.223 52.7211 186.141 52.6391C186.079 52.5572 185.915 52.5059 185.649 52.4855C185.116 52.4445 184.378 52.424 183.436 52.424C182.513 52.4035 181.54 52.3932 180.515 52.3932C179.511 52.3932 178.538 52.4035 177.595 52.424C176.653 52.4445 175.915 52.465 175.382 52.4855C175.116 52.5059 174.941 52.5572 174.859 52.6391C174.798 52.7211 174.757 52.8748 174.736 53.1002Z" fill="#F5FAFF"/>
<path d="M53.2798 50.7998C53.2798 44.4375 58.4375 39.2798 64.7998 39.2798H87.3598C89.4806 39.2798 91.1998 40.999 91.1998 43.1198V61.8398C91.1998 63.9606 89.4806 65.6798 87.3598 65.6798H57.1198C54.999 65.6798 53.2798 63.9606 53.2798 61.8398V50.7998Z" fill="#B1D7F9"/>
<circle cx="32.64" cy="90.64" r="8.64" fill="#B1D7F9"/>
<rect x="272" y="31" width="80" height="4" rx="2" fill="#DEDEDE"/>
<rect x="272" y="49" width="100" height="4" rx="2" fill="#DEDEDE"/>
<rect x="272" y="67" width="60" height="4" rx="2" fill="#DEDEDE"/>
</svg>
